<?xml version="1.0" encoding="iso-8859-1"?>
<!-- Generator: Adobe Illustrator 19.0.0, SVG Export Plug-In . SVG Version: 6.00 Build 0)  -->
<svg version="1.1" id="Capa_1" xmlns="http://www.w3.org/2000/svg" xmlns:xlink="http://www.w3.org/1999/xlink" x="0px" y="0px"
	 viewBox="0 0 407.467 407.467" style="enable-background:new 0 0 407.467 407.467;" xml:space="preserve">
<g>
	<path d="M403.359,320.228L250.938,164.807l41.063-41.063l14.142,14.142l31.82-31.82L231.897,0l-31.819,31.819l14.142,14.142
		L97.547,162.634l-14.142-14.142l-31.819,31.82l106.065,106.066l31.82-31.82l-14.142-14.142l40.254-40.254l152.421,155.422
		L403.359,320.228z M221.29,31.819l10.606-10.606l84.854,84.853l-10.607,10.607l-3.535-3.535l0,0l-77.781-77.782l0,0L221.29,31.819z
		 M168.258,254.558l-10.607,10.607l-84.853-84.853l10.606-10.607l3.536,3.536l77.782,77.782L168.258,254.558z M108.153,173.241
		L224.826,56.568l56.568,56.569l-40.96,40.96l0,0l-17.677,17.678l-58.035,58.035L108.153,173.241z M240.33,175.414l141.919,144.711
		l-14.143,14.142L226.189,189.556L240.33,175.414z"/>
	<path d="M180.109,332.467h-156v30h-20v45h200v-45h-24V332.467z M39.109,347.467h126v15h-126V347.467z M189.109,377.467v15h-170v-15
		h5h156H189.109z"/>
</g>
<g>
</g>
<g>
</g>
<g>
</g>
<g>
</g>
<g>
</g>
<g>
</g>
<g>
</g>
<g>
</g>
<g>
</g>
<g>
</g>
<g>
</g>
<g>
</g>
<g>
</g>
<g>
</g>
<g>
</g>
</svg>
